# xmcd
#
# Track frame offsets:
#	150
#	10999
#	27895
#	49702
#	76305
#	93709
#	104193
#	120280
#	138653
#	163015
#
# Disc length: 2547 seconds
#
# Revision: 0
# Processed by: cddbd v1.5.1PL2 Copyright (c) Steve Scherf et al.
# Submitted via: SynApp - FreeCDDB Version: 2.0
#
DISCID=8009f10a
DTITLE=Clauss, Arno - An Tante Gertie in Zons am Rhein
DYEAR=1999
DGENRE=A capella
TTITLE0=Lied für Arbeitnehmer
TTITLE1=Es war an einem Sommertag
TTITLE2=Mädchen warten nur, bis es Herbst wird
TTITLE3=Ein Jahr ist vergangen
TTITLE4=Karlchen, oder: So kann das nicht weitergehen
TTITLE5=Manchen Leuten möchte ich gern in die Fresse schlagen
TTITLE6=Weißt Du schon, daß man Dich betrogen hat
TTITLE7=Der Graue
TTITLE8=Otto
TTITLE9=Lied an Zons
EXTD=
EXTT0=
EXTT1=
EXTT2=
EXTT3=
EXTT4=
EXTT5=
EXTT6=
EXTT7=
EXTT8=
EXTT9=
PLAYORDER=
